<svg xmlns="http://www.w3.org/2000/svg" xmlns:xlink="http://www.w3.org/1999/xlink" width="20pt" height="20pt" viewBox="0 0 20 20" version="1.1">
<g id="surface1">
<path style=" stroke:none;fill-rule:nonzero;fill:#fff;fill-opacity:1;" d="M 17.070312 2.929688 C 15.183594 1.039062 12.671875 0 10 0 C 7.328125 0 4.816406 1.039062 2.929688 2.929688 C 1.039062 4.816406 0 7.328125 0 10 C 0 12.671875 1.039062 15.183594 2.929688 17.070312 C 4.816406 18.960938 7.328125 20 10 20 C 12.671875 20 15.183594 18.960938 17.070312 17.070312 C 18.960938 15.183594 20 12.671875 20 10 C 20 7.328125 18.960938 4.816406 17.070312 2.929688 Z M 10 16.875 C 9.65625 16.875 9.375 16.59375 9.375 16.25 C 9.375 15.90625 9.65625 15.625 10 15.625 C 10.347656 15.625 10.625 15.90625 10.625 16.25 C 10.625 16.59375 10.347656 16.875 10 16.875 Z M 11.988281 10.457031 C 11.109375 11.335938 10.625 12.507812 10.625 13.75 C 10.625 14.09375 10.34375 14.375 10 14.375 C 9.65625 14.375 9.375 14.09375 9.375 13.75 C 9.375 12.171875 9.988281 10.6875 11.105469 9.574219 C 11.804688 8.875 12.1875 7.949219 12.1875 6.960938 C 12.1875 5.878906 11.308594 5 10.226562 5 L 10.085938 5 C 9.003906 5 8.125 5.878906 8.125 6.960938 L 8.125 7.1875 C 8.125 7.53125 7.84375 7.8125 7.5 7.8125 C 7.15625 7.8125 6.875 7.53125 6.875 7.1875 L 6.875 6.960938 C 6.875 5.191406 8.316406 3.75 10.085938 3.75 L 10.226562 3.75 C 11.996094 3.75 13.4375 5.191406 13.4375 6.960938 C 13.4375 8.28125 12.921875 9.523438 11.988281 10.457031 Z M 11.988281 10.457031 "/>
</g>
</svg>
