<svg xmlns="http://www.w3.org/2000/svg" xmlns:xlink="http://www.w3.org/1999/xlink" width="20pt" height="20pt" viewBox="0 0 20 20" version="1.1">
<g id="surface1">
<path style=" stroke:none;fill-rule:nonzero;fill:#fff;fill-opacity:1;" d="M 16.667969 0 L 4.167969 0 C 3.246094 0 2.5 0.746094 2.5 1.667969 L 2.5 3.332031 L 2.082031 3.332031 C 1.851562 3.332031 1.667969 3.519531 1.667969 3.75 C 1.667969 3.980469 1.851562 4.167969 2.082031 4.167969 L 3.75 4.167969 C 3.980469 4.167969 4.167969 4.351562 4.167969 4.582031 C 4.167969 4.8125 3.980469 5 3.75 5 L 2.917969 5 C 2.6875 5 2.5 5.1875 2.5 5.417969 L 2.5 7.5 L 2.082031 7.5 C 1.851562 7.5 1.667969 7.6875 1.667969 7.917969 C 1.667969 8.148438 1.851562 8.332031 2.082031 8.332031 L 3.75 8.332031 C 3.980469 8.332031 4.167969 8.519531 4.167969 8.75 C 4.167969 8.980469 3.980469 9.167969 3.75 9.167969 L 2.917969 9.167969 C 2.6875 9.167969 2.5 9.351562 2.5 9.582031 L 2.5 11.667969 L 2.082031 11.667969 C 1.851562 11.667969 1.667969 11.851562 1.667969 12.082031 C 1.667969 12.3125 1.851562 12.5 2.082031 12.5 L 3.75 12.5 C 3.980469 12.5 4.167969 12.6875 4.167969 12.917969 C 4.167969 13.148438 3.980469 13.332031 3.75 13.332031 L 2.917969 13.332031 C 2.6875 13.332031 2.5 13.519531 2.5 13.75 L 2.5 15.832031 L 2.082031 15.832031 C 1.851562 15.832031 1.667969 16.019531 1.667969 16.25 C 1.667969 16.480469 1.851562 16.667969 2.082031 16.667969 L 3.75 16.667969 C 3.980469 16.667969 4.167969 16.851562 4.167969 17.082031 C 4.167969 17.3125 3.980469 17.5 3.75 17.5 L 2.917969 17.5 C 2.6875 17.5 2.5 17.6875 2.5 17.917969 L 2.5 18.332031 C 2.5 19.253906 3.246094 20 4.167969 20 L 16.667969 20 C 17.585938 20 18.332031 19.253906 18.332031 18.332031 L 18.332031 1.667969 C 18.332031 0.746094 17.585938 0 16.667969 0 Z M 15.832031 13.242188 C 15.832031 13.75 15.417969 14.167969 14.90625 14.167969 C 9.902344 14.167969 5.832031 10.097656 5.832031 5.09375 C 5.832031 4.582031 6.25 4.167969 6.757812 4.167969 L 8.542969 4.167969 C 9.050781 4.167969 9.46875 4.582031 9.46875 5.09375 C 9.46875 5.671875 9.558594 6.238281 9.734375 6.78125 C 9.84375 7.117188 9.753906 7.476562 9.507812 7.722656 L 8.777344 8.695312 C 9.40625 9.847656 10.140625 10.585938 11.304688 11.21875 L 12.320312 10.453125 C 12.523438 10.242188 12.894531 10.15625 13.226562 10.269531 C 13.761719 10.445312 14.328125 10.539062 14.90625 10.539062 C 15.417969 10.539062 15.832031 10.953125 15.832031 11.464844 Z M 15.832031 13.242188 "/>
</g>
</svg>
