<svg xmlns="http://www.w3.org/2000/svg" xmlns:xlink="http://www.w3.org/1999/xlink" width="50pt" height="50pt" viewBox="0 0 50 50" version="1.1">
<g id="surface1">
<path style=" stroke:none;fill-rule:nonzero;fill:#fff;fill-opacity:1;" d="M 25.015625 13.144531 L 7.171875 27.855469 C 7.171875 27.875 7.167969 27.90625 7.15625 27.949219 C 7.148438 27.988281 7.140625 28.019531 7.140625 28.042969 L 7.140625 42.9375 C 7.140625 43.476562 7.335938 43.941406 7.730469 44.332031 C 8.125 44.726562 8.589844 44.925781 9.128906 44.925781 L 21.042969 44.925781 L 21.042969 33.007812 L 28.988281 33.007812 L 28.988281 44.925781 L 40.90625 44.925781 C 41.441406 44.925781 41.910156 44.726562 42.300781 44.332031 C 42.695312 43.941406 42.890625 43.476562 42.890625 42.9375 L 42.890625 28.042969 C 42.890625 27.957031 42.878906 27.894531 42.859375 27.855469 Z M 25.015625 13.144531 "/>
<path style=" stroke:none;fill-rule:nonzero;fill:#fff;fill-opacity:1;" d="M 49.6875 24.503906 L 42.890625 18.855469 L 42.890625 6.195312 C 42.890625 5.90625 42.796875 5.667969 42.613281 5.480469 C 42.425781 5.292969 42.1875 5.203125 41.898438 5.203125 L 35.941406 5.203125 C 35.648438 5.203125 35.414062 5.292969 35.226562 5.480469 C 35.039062 5.667969 34.945312 5.90625 34.945312 6.195312 L 34.945312 12.246094 L 27.375 5.914062 C 26.714844 5.378906 25.925781 5.109375 25.015625 5.109375 C 24.105469 5.109375 23.320312 5.378906 22.660156 5.914062 L 0.34375 24.503906 C 0.136719 24.667969 0.0234375 24.890625 0.00390625 25.171875 C -0.015625 25.449219 0.0546875 25.695312 0.21875 25.902344 L 2.144531 28.199219 C 2.308594 28.382812 2.527344 28.496094 2.796875 28.539062 C 3.042969 28.558594 3.292969 28.488281 3.542969 28.320312 L 25.015625 10.414062 L 46.492188 28.320312 C 46.65625 28.464844 46.875 28.539062 47.144531 28.539062 L 47.234375 28.539062 C 47.503906 28.496094 47.722656 28.382812 47.886719 28.195312 L 49.8125 25.902344 C 49.976562 25.695312 50.050781 25.449219 50.027344 25.171875 C 50.007812 24.890625 49.894531 24.667969 49.6875 24.503906 Z M 49.6875 24.503906 "/>
</g>
</svg>
