<svg xmlns="http://www.w3.org/2000/svg" xmlns:xlink="http://www.w3.org/1999/xlink" width="20pt" height="20pt" viewBox="0 0 20 20" version="1.1">
<g id="surface1">
<path style=" stroke:none;fill-rule:nonzero;fill:#fff;fill-opacity:1;" d="M 15.625 7.5 L 15 7.5 L 15 5 C 15 2.242188 12.757812 0 10 0 C 7.242188 0 5 2.242188 5 5 L 5 7.5 L 4.375 7.5 C 3.339844 7.5 2.5 8.339844 2.5 9.375 L 2.5 18.125 C 2.5 19.160156 3.339844 20 4.375 20 L 15.625 20 C 16.660156 20 17.5 19.160156 17.5 18.125 L 17.5 9.375 C 17.5 8.339844 16.660156 7.5 15.625 7.5 Z M 6.667969 5 C 6.667969 3.160156 8.160156 1.667969 10 1.667969 C 11.839844 1.667969 13.332031 3.160156 13.332031 5 L 13.332031 7.5 L 6.667969 7.5 Z M 10.832031 13.933594 L 10.832031 15.832031 C 10.832031 16.292969 10.460938 16.667969 10 16.667969 C 9.539062 16.667969 9.167969 16.292969 9.167969 15.832031 L 9.167969 13.933594 C 8.671875 13.644531 8.332031 13.113281 8.332031 12.5 C 8.332031 11.582031 9.082031 10.832031 10 10.832031 C 10.917969 10.832031 11.667969 11.582031 11.667969 12.5 C 11.667969 13.113281 11.328125 13.644531 10.832031 13.933594 Z M 10.832031 13.933594 "/>
</g>
</svg>
