<svg xmlns="http://www.w3.org/2000/svg" xmlns:xlink="http://www.w3.org/1999/xlink" width="20pt" height="20pt" viewBox="0 0 20 20" version="1.1">
<g id="surface1">
<path style=" stroke:none;fill-rule:nonzero;fill:white;fill-opacity:1;" d="M 18.183594 0.0117188 C 18.164062 0.0117188 18.148438 0 18.125 0 L 9.167969 0 C 7.789062 0 6.667969 1.121094 6.667969 2.5 L 6.667969 3.332031 C 6.667969 3.792969 7.039062 4.167969 7.5 4.167969 C 7.960938 4.167969 8.332031 3.792969 8.332031 3.332031 L 8.332031 2.5 C 8.332031 2.039062 8.707031 1.667969 9.167969 1.667969 L 13.050781 1.667969 L 12.796875 1.75 C 12.121094 1.984375 11.667969 2.621094 11.667969 3.332031 L 11.667969 15.832031 L 9.167969 15.832031 C 8.707031 15.832031 8.332031 15.460938 8.332031 15 L 8.332031 13.332031 C 8.332031 12.875 7.960938 12.5 7.5 12.5 C 7.039062 12.5 6.667969 12.875 6.667969 13.332031 L 6.667969 15 C 6.667969 16.378906 7.789062 17.5 9.167969 17.5 L 11.667969 17.5 L 11.667969 18.332031 C 11.667969 19.253906 12.414062 20 13.332031 20 C 13.511719 20 13.679688 19.972656 13.863281 19.917969 L 18.871094 18.25 C 19.546875 18.015625 20 17.378906 20 16.667969 L 20 1.667969 C 20 0.695312 19.164062 -0.0664062 18.183594 0.0117188 Z M 18.183594 0.0117188 "/>
<path style=" stroke:none;fill-rule:nonzero;fill:white;fill-opacity:1;" d="M 8.921875 7.746094 L 5.589844 4.410156 C 5.351562 4.171875 4.992188 4.101562 4.679688 4.230469 C 4.371094 4.359375 4.167969 4.664062 4.167969 5 L 4.167969 7.5 L 0.832031 7.5 C 0.375 7.5 0 7.875 0 8.332031 C 0 8.792969 0.375 9.167969 0.832031 9.167969 L 4.167969 9.167969 L 4.167969 11.667969 C 4.167969 12.003906 4.371094 12.308594 4.679688 12.4375 C 4.992188 12.566406 5.351562 12.496094 5.589844 12.253906 L 8.921875 8.921875 C 9.25 8.597656 9.25 8.070312 8.921875 7.746094 Z M 8.921875 7.746094 "/>
</g>
</svg>
