<svg xmlns="http://www.w3.org/2000/svg" xmlns:xlink="http://www.w3.org/1999/xlink" width="20pt" height="20pt" viewBox="0 0 20 20" version="1.1">
<g id="surface1">
<path style=" stroke:none;fill-rule:nonzero;fill:#fff;fill-opacity:1;" d="M 19.9375 8.847656 C 19.894531 8.746094 19.832031 8.652344 19.753906 8.578125 L 17.257812 6.078125 C 16.929688 5.753906 16.402344 5.753906 16.078125 6.078125 C 15.753906 6.402344 15.753906 6.929688 16.078125 7.253906 L 17.15625 8.332031 L 12.5 8.332031 C 12.039062 8.332031 11.667969 8.707031 11.667969 9.167969 C 11.667969 9.625 12.039062 10 12.5 10 L 17.15625 10 L 16.078125 11.078125 C 15.753906 11.402344 15.753906 11.929688 16.078125 12.253906 C 16.242188 12.417969 16.453125 12.5 16.667969 12.5 C 16.878906 12.5 17.09375 12.417969 17.257812 12.253906 L 19.753906 9.757812 C 19.832031 9.679688 19.894531 9.585938 19.9375 9.484375 C 20.019531 9.28125 20.019531 9.050781 19.9375 8.847656 Z M 19.9375 8.847656 "/>
<path style=" stroke:none;fill-rule:nonzero;fill:#fff;fill-opacity:1;" d="M 14.167969 11.667969 C 13.707031 11.667969 13.332031 12.039062 13.332031 12.5 L 13.332031 16.667969 L 10 16.667969 L 10 3.332031 C 10 2.964844 9.757812 2.640625 9.40625 2.535156 L 6.511719 1.667969 L 13.332031 1.667969 L 13.332031 5.832031 C 13.332031 6.292969 13.707031 6.667969 14.167969 6.667969 C 14.628906 6.667969 15 6.292969 15 5.832031 L 15 0.832031 C 15 0.375 14.628906 0 14.167969 0 L 0.832031 0 C 0.804688 0 0.777344 0.0117188 0.75 0.015625 C 0.707031 0.0195312 0.671875 0.0273438 0.636719 0.0351562 C 0.546875 0.0585938 0.46875 0.09375 0.394531 0.140625 C 0.375 0.152344 0.355469 0.152344 0.335938 0.164062 C 0.328125 0.171875 0.328125 0.179688 0.320312 0.183594 C 0.230469 0.253906 0.152344 0.34375 0.0976562 0.449219 C 0.0859375 0.46875 0.0859375 0.496094 0.0742188 0.515625 C 0.0507812 0.582031 0.0195312 0.640625 0.0078125 0.710938 C 0.00390625 0.738281 0.0117188 0.761719 0.0117188 0.785156 C 0.0117188 0.800781 0 0.816406 0 0.832031 L 0 17.5 C 0 17.898438 0.28125 18.238281 0.671875 18.316406 L 9.003906 19.984375 C 9.058594 19.996094 9.113281 20 9.167969 20 C 9.359375 20 9.546875 19.933594 9.695312 19.8125 C 9.886719 19.652344 10 19.417969 10 19.167969 L 10 18.332031 L 14.167969 18.332031 C 14.628906 18.332031 15 17.960938 15 17.5 L 15 12.5 C 15 12.039062 14.628906 11.667969 14.167969 11.667969 Z M 14.167969 11.667969 "/>
</g>
</svg>
