<svg xmlns="http://www.w3.org/2000/svg" xmlns:xlink="http://www.w3.org/1999/xlink" width="20pt" height="20pt" viewBox="0 0 20 20" version="1.1">
<g id="surface1">
<path style=" stroke:none;fill-rule:nonzero;fill:#fff;fill-opacity:1;" d="M 17.855469 0 L 2.144531 0 C 0.960938 0 0 0.960938 0 2.144531 L 0 17.855469 C 0 19.039062 0.960938 20 2.144531 20 L 17.855469 20 C 19.039062 20 20 19.039062 20 17.855469 L 20 2.144531 C 20 0.960938 19.039062 0 17.855469 0 Z M 6.429688 15.714844 L 4.285156 15.714844 C 3.890625 15.714844 3.570312 15.394531 3.570312 15 C 3.570312 14.605469 3.890625 14.285156 4.285156 14.285156 L 6.429688 14.285156 C 6.824219 14.285156 7.144531 14.605469 7.144531 15 C 7.144531 15.394531 6.824219 15.714844 6.429688 15.714844 Z M 6.429688 10.714844 L 4.285156 10.714844 C 3.890625 10.714844 3.570312 10.394531 3.570312 10 C 3.570312 9.605469 3.890625 9.285156 4.285156 9.285156 L 6.429688 9.285156 C 6.824219 9.285156 7.144531 9.605469 7.144531 10 C 7.144531 10.394531 6.824219 10.714844 6.429688 10.714844 Z M 6.429688 5.714844 L 4.285156 5.714844 C 3.890625 5.714844 3.570312 5.394531 3.570312 5 C 3.570312 4.605469 3.890625 4.285156 4.285156 4.285156 L 6.429688 4.285156 C 6.824219 4.285156 7.144531 4.605469 7.144531 5 C 7.144531 5.394531 6.824219 5.714844 6.429688 5.714844 Z M 15.714844 15.714844 L 9.285156 15.714844 C 8.890625 15.714844 8.570312 15.394531 8.570312 15 C 8.570312 14.605469 8.890625 14.285156 9.285156 14.285156 L 15.714844 14.285156 C 16.109375 14.285156 16.429688 14.605469 16.429688 15 C 16.429688 15.394531 16.109375 15.714844 15.714844 15.714844 Z M 15.714844 10.714844 L 9.285156 10.714844 C 8.890625 10.714844 8.570312 10.394531 8.570312 10 C 8.570312 9.605469 8.890625 9.285156 9.285156 9.285156 L 15.714844 9.285156 C 16.109375 9.285156 16.429688 9.605469 16.429688 10 C 16.429688 10.394531 16.109375 10.714844 15.714844 10.714844 Z M 15.714844 5.714844 L 9.285156 5.714844 C 8.890625 5.714844 8.570312 5.394531 8.570312 5 C 8.570312 4.605469 8.890625 4.285156 9.285156 4.285156 L 15.714844 4.285156 C 16.109375 4.285156 16.429688 4.605469 16.429688 5 C 16.429688 5.394531 16.109375 5.714844 15.714844 5.714844 Z M 15.714844 5.714844 "/>
</g>
</svg>
