<svg xmlns="http://www.w3.org/2000/svg" xmlns:xlink="http://www.w3.org/1999/xlink" width="20pt" height="20pt" viewBox="0 0 20 20" version="1.1">
<g id="surface1">
<path style=" stroke:none;fill-rule:nonzero;fill:#fff;fill-opacity:1;" d="M 12.058594 1.175781 L 11.46875 1.175781 L 11.46875 3.53125 L 10.292969 3.53125 L 10.292969 1.175781 L 9.117188 1.175781 L 9.117188 3.53125 L 7.941406 3.53125 L 7.941406 1.175781 L 6.765625 1.175781 L 6.765625 3.53125 L 5.589844 3.53125 L 5.589844 1.175781 L 4.410156 1.175781 L 4.410156 3.53125 L 3.234375 3.53125 L 3.234375 1.175781 L 2.648438 1.175781 C 1.351562 1.175781 0.292969 2.230469 0.292969 3.53125 L 0.292969 4.707031 L 14.410156 4.707031 L 14.410156 3.53125 C 14.410156 2.230469 13.355469 1.175781 12.058594 1.175781 Z M 12.058594 1.175781 "/>
<path style=" stroke:none;fill-rule:nonzero;fill:#fff;fill-opacity:1;" d="M 0.292969 17.648438 C 0.292969 18.945312 1.351562 20 2.648438 20 L 12.058594 20 C 13.355469 20 14.410156 18.945312 14.410156 17.648438 L 14.410156 5.882812 L 0.292969 5.882812 Z M 2.648438 7.058594 L 12.058594 7.058594 L 12.058594 8.234375 L 2.648438 8.234375 Z M 2.648438 9.410156 L 12.058594 9.410156 L 12.058594 10.589844 L 2.648438 10.589844 Z M 2.648438 11.765625 L 12.058594 11.765625 L 12.058594 12.941406 L 2.648438 12.941406 Z M 2.648438 14.117188 L 9.707031 14.117188 L 9.707031 15.292969 L 2.648438 15.292969 Z M 2.648438 16.46875 L 7.351562 16.46875 L 7.351562 17.648438 L 2.648438 17.648438 Z M 2.648438 16.46875 "/>
<path style=" stroke:none;fill-rule:nonzero;fill:#fff;fill-opacity:1;" d="M 3.234375 0 L 4.410156 0 L 4.410156 1.175781 L 3.234375 1.175781 Z M 3.234375 0 "/>
<path style=" stroke:none;fill-rule:nonzero;fill:#fff;fill-opacity:1;" d="M 5.589844 0 L 6.765625 0 L 6.765625 1.175781 L 5.589844 1.175781 Z M 5.589844 0 "/>
<path style=" stroke:none;fill-rule:nonzero;fill:#fff;fill-opacity:1;" d="M 7.941406 0 L 9.117188 0 L 9.117188 1.175781 L 7.941406 1.175781 Z M 7.941406 0 "/>
<path style=" stroke:none;fill-rule:nonzero;fill:#fff;fill-opacity:1;" d="M 10.292969 0 L 11.46875 0 L 11.46875 1.175781 L 10.292969 1.175781 Z M 10.292969 0 "/>
<path style=" stroke:none;fill-rule:nonzero;fill:#fff;fill-opacity:1;" d="M 16.175781 7.648438 L 19.707031 7.648438 L 19.707031 14.707031 L 16.175781 14.707031 Z M 16.175781 7.648438 "/>
<path style=" stroke:none;fill-rule:nonzero;fill:#fff;fill-opacity:1;" d="M 17.941406 0 C 16.964844 0 16.175781 0.789062 16.175781 1.765625 L 16.175781 4.117188 L 19.707031 4.117188 L 19.707031 1.765625 C 19.707031 0.789062 18.914062 0 17.941406 0 Z M 17.941406 0 "/>
<path style=" stroke:none;fill-rule:nonzero;fill:#fff;fill-opacity:1;" d="M 16.175781 5.292969 L 19.707031 5.292969 L 19.707031 6.46875 L 16.175781 6.46875 Z M 16.175781 5.292969 "/>
<path style=" stroke:none;fill-rule:nonzero;fill:#fff;fill-opacity:1;" d="M 17.941406 19.765625 L 19.707031 15.882812 L 16.175781 15.882812 Z M 17.941406 19.765625 "/>
</g>
</svg>
