<svg xmlns="http://www.w3.org/2000/svg" xmlns:xlink="http://www.w3.org/1999/xlink" width="20pt" height="20pt" viewBox="0 0 20 20" version="1.1">
<g id="surface1">
<path style=" stroke:none;fill-rule:nonzero;fill:#fff;fill-opacity:1;" d="M 17.917969 16.492188 L 17.027344 5.238281 C 16.972656 4.511719 16.355469 3.945312 15.628906 3.945312 L 13.867188 3.945312 L 13.867188 6.558594 C 13.867188 6.882812 13.605469 7.144531 13.28125 7.144531 C 12.957031 7.144531 12.695312 6.882812 12.695312 6.558594 L 12.695312 3.945312 L 7.304688 3.945312 L 7.304688 6.558594 C 7.304688 6.882812 7.042969 7.144531 6.71875 7.144531 C 6.394531 7.144531 6.132812 6.882812 6.132812 6.558594 L 6.132812 3.945312 L 4.371094 3.945312 C 3.644531 3.945312 3.03125 4.511719 2.972656 5.238281 L 2.082031 16.496094 C 2.011719 17.394531 2.324219 18.292969 2.9375 18.957031 C 3.554688 19.621094 4.421875 20 5.328125 20 L 14.671875 20 C 15.578125 20 16.449219 19.621094 17.0625 18.957031 C 17.675781 18.292969 17.988281 17.394531 17.917969 16.492188 Z M 12.640625 10.761719 L 9.609375 13.789062 C 9.496094 13.90625 9.34375 13.960938 9.195312 13.960938 C 9.046875 13.960938 8.894531 13.90625 8.78125 13.789062 L 7.359375 12.371094 C 7.132812 12.140625 7.132812 11.773438 7.359375 11.542969 C 7.589844 11.3125 7.960938 11.3125 8.191406 11.542969 L 9.195312 12.546875 L 11.8125 9.933594 C 12.039062 9.703125 12.410156 9.703125 12.640625 9.933594 C 12.867188 10.160156 12.867188 10.53125 12.640625 10.761719 Z M 12.640625 10.761719 "/>
<path style=" stroke:none;fill-rule:nonzero;fill:#fff;fill-opacity:1;" d="M 10 0 C 7.867188 0 6.132812 1.734375 6.132812 3.867188 L 6.132812 3.945312 L 7.304688 3.945312 L 7.304688 3.867188 C 7.304688 2.378906 8.515625 1.171875 10 1.171875 C 11.484375 1.171875 12.695312 2.378906 12.695312 3.867188 L 12.695312 3.945312 L 13.867188 3.945312 L 13.867188 3.867188 C 13.867188 1.734375 12.132812 0 10 0 Z M 10 0 "/>
</g>
</svg>
