<svg xmlns="http://www.w3.org/2000/svg" xmlns:xlink="http://www.w3.org/1999/xlink" width="20pt" height="20pt" viewBox="0 0 20 20" version="1.1">
<g id="surface1">
<path style=" stroke:none;fill-rule:nonzero;fill:#fff;fill-opacity:1;" d="M 5.996094 11.796875 L 7.71875 11.796875 C 7.769531 10.636719 7.976562 9.519531 8.339844 8.660156 C 7.097656 9.230469 6.199219 10.398438 5.996094 11.796875 Z M 5.996094 11.796875 "/>
<path style=" stroke:none;fill-rule:nonzero;fill:#fff;fill-opacity:1;" d="M 10.039062 8.28125 C 9.726562 8.28125 9 9.515625 8.890625 11.796875 L 11.1875 11.796875 C 11.078125 9.515625 10.351562 8.28125 10.039062 8.28125 Z M 10.039062 8.28125 "/>
<path style=" stroke:none;fill-rule:nonzero;fill:#fff;fill-opacity:1;" d="M 8.890625 12.96875 C 9 15.25 9.726562 16.484375 10.039062 16.484375 C 10.351562 16.484375 11.078125 15.25 11.1875 12.96875 Z M 8.890625 12.96875 "/>
<path style=" stroke:none;fill-rule:nonzero;fill:#fff;fill-opacity:1;" d="M 18.242188 0 L 1.757812 0 C 0.789062 0 0 0.789062 0 1.757812 L 0 3.515625 L 20 3.515625 L 20 1.757812 C 20 0.789062 19.210938 0 18.242188 0 Z M 10.039062 2.34375 L 8.867188 2.34375 C 8.09375 2.34375 8.089844 1.171875 8.867188 1.171875 L 10.039062 1.171875 C 10.8125 1.171875 10.816406 2.34375 10.039062 2.34375 Z M 13.554688 2.34375 L 12.382812 2.34375 C 11.609375 2.34375 11.605469 1.171875 12.382812 1.171875 L 13.554688 1.171875 C 14.328125 1.171875 14.332031 2.34375 13.554688 2.34375 Z M 17.070312 2.34375 L 15.898438 2.34375 C 15.125 2.34375 15.121094 1.171875 15.898438 1.171875 L 17.070312 1.171875 C 17.84375 1.171875 17.847656 2.34375 17.070312 2.34375 Z M 17.070312 2.34375 "/>
<path style=" stroke:none;fill-rule:nonzero;fill:#fff;fill-opacity:1;" d="M 7.71875 12.96875 L 5.996094 12.96875 C 6.199219 14.367188 7.097656 15.535156 8.339844 16.105469 C 7.976562 15.246094 7.769531 14.128906 7.71875 12.96875 Z M 7.71875 12.96875 "/>
<path style=" stroke:none;fill-rule:nonzero;fill:#fff;fill-opacity:1;" d="M 0 4.6875 L 0 18.242188 C 0 19.210938 0.789062 20 1.757812 20 L 18.242188 20 C 19.210938 20 20 19.210938 20 18.242188 L 20 4.6875 Z M 10.039062 17.65625 C 7.132812 17.65625 4.765625 15.289062 4.765625 12.382812 C 4.765625 9.476562 7.132812 7.109375 10.039062 7.109375 C 12.945312 7.109375 15.3125 9.476562 15.3125 12.382812 C 15.3125 15.289062 12.945312 17.65625 10.039062 17.65625 Z M 10.039062 17.65625 "/>
<path style=" stroke:none;fill-rule:nonzero;fill:#fff;fill-opacity:1;" d="M 11.738281 8.660156 C 12.101562 9.519531 12.308594 10.636719 12.359375 11.796875 L 14.082031 11.796875 C 13.878906 10.398438 12.980469 9.230469 11.738281 8.660156 Z M 11.738281 8.660156 "/>
<path style=" stroke:none;fill-rule:nonzero;fill:#fff;fill-opacity:1;" d="M 12.359375 12.96875 C 12.308594 14.128906 12.101562 15.246094 11.738281 16.105469 C 12.980469 15.535156 13.878906 14.367188 14.082031 12.96875 Z M 12.359375 12.96875 "/>
</g>
</svg>
