<svg xmlns="http://www.w3.org/2000/svg" xmlns:xlink="http://www.w3.org/1999/xlink" width="20pt" height="20pt" viewBox="0 0 20 20" version="1.1">
<g id="surface1">
<path style=" stroke:none;fill-rule:nonzero;fill:#fff;fill-opacity:1;" d="M 10 0 C 7.144531 0 4.808594 2.335938 4.808594 5.191406 C 4.808594 8.050781 7.144531 10.386719 10 10.386719 C 12.859375 10.386719 15.195312 8.050781 15.195312 5.191406 C 15.195312 2.335938 12.859375 0 10 0 Z M 10 0 "/>
<path style=" stroke:none;fill-rule:nonzero;fill:#fff;fill-opacity:1;" d="M 18.914062 14.535156 C 18.777344 14.195312 18.59375 13.878906 18.390625 13.582031 C 17.347656 12.039062 15.738281 11.019531 13.925781 10.769531 C 13.699219 10.75 13.449219 10.792969 13.265625 10.929688 C 12.3125 11.632812 11.179688 11.996094 10 11.996094 C 8.820312 11.996094 7.6875 11.632812 6.734375 10.929688 C 6.554688 10.792969 6.304688 10.726562 6.078125 10.769531 C 4.265625 11.019531 2.632812 12.039062 1.613281 13.582031 C 1.40625 13.878906 1.226562 14.21875 1.089844 14.535156 C 1.023438 14.671875 1.042969 14.828125 1.113281 14.964844 C 1.292969 15.285156 1.519531 15.601562 1.726562 15.875 C 2.042969 16.304688 2.382812 16.6875 2.769531 17.050781 C 3.085938 17.371094 3.449219 17.664062 3.8125 17.960938 C 5.601562 19.296875 7.757812 20 9.980469 20 C 12.199219 20 14.355469 19.296875 16.148438 17.960938 C 16.507812 17.6875 16.871094 17.371094 17.191406 17.050781 C 17.550781 16.6875 17.914062 16.304688 18.234375 15.875 C 18.460938 15.578125 18.664062 15.285156 18.84375 14.964844 C 18.957031 14.828125 18.980469 14.671875 18.914062 14.535156 Z M 18.914062 14.535156 "/>
</g>
</svg>
